<?xml version="1.0" standalone="no"?>
<!DOCTYPE svg PUBLIC "-//W3C//DTD SVG 20010904//EN"
 "http://www.w3.org/TR/2001/REC-SVG-20010904/DTD/svg10.dtd">
<svg version="1.0" xmlns="http://www.w3.org/2000/svg"
 width="200.000000pt" height="200.000000pt" viewBox="0 0 200.000000 200.000000"
 preserveAspectRatio="xMidYMid meet">

<g transform="translate(0.000000,200.000000) scale(0.100000,-0.100000)"
fill="#000000" stroke="none">
<path d="M647 1709 c-76 -18 -141 -69 -180 -143 -29 -57 -29 -156 0 -212 24
-45 85 -104 133 -129 25 -13 31 -22 28 -43 -3 -25 -6 -27 -60 -30 -37 -2 -68
2 -87 13 -17 8 -34 15 -38 15 -4 0 -8 -49 -8 -110 0 -60 4 -110 8 -110 4 0 18
7 31 16 17 10 43 14 88 12 l63 -3 3 -104 c1 -58 8 -111 14 -118 7 -9 37 -13
93 -13 89 0 95 -4 95 -56 0 -14 -42 -87 -101 -175 -76 -114 -98 -154 -89 -163
8 -8 15 -7 24 7 19 25 122 143 180 205 83 88 103 65 105 -123 1 -73 13 -107
30 -90 5 6 15 57 20 115 15 137 18 150 39 150 9 0 71 -61 136 -135 107 -121
146 -154 146 -126 0 10 -32 61 -141 224 -33 49 -59 99 -59 112 0 51 7 55 95
55 93 0 116 13 112 65 -2 27 1 30 37 36 23 4 47 16 58 29 l18 22 131 -31 c103
-25 134 -29 145 -20 12 10 14 41 12 163 l-3 151 -32 3 c-18 2 -63 -6 -100 -17
-37 -10 -88 -22 -112 -26 -39 -6 -46 -4 -61 15 -10 14 -33 25 -56 29 -55 9
-51 34 15 85 111 85 143 214 81 322 -83 146 -264 182 -387 76 -34 -29 -83
-113 -83 -141 0 -32 -14 -56 -28 -47 -5 3 -13 23 -17 43 -24 131 -172 232
-298 202z m88 -223 c33 -51 -27 -97 -71 -55 -29 27 -30 33 -4 59 27 27 56 25
75 -4z m539 5 c23 -26 17 -52 -16 -70 -24 -14 -28 -14 -47 3 -25 23 -27 49 -5
70 21 21 47 20 68 -3z m121 -481 l0 -115 -32 -3 c-19 -2 -33 1 -33 7 -1 6 -1
56 -1 111 0 55 0 105 1 111 0 6 14 9 33 7 l32 -3 0 -115z m-476 96 c7 -8 11
-27 9 -43 l-3 -28 -205 0 -205 0 -3 34 c-2 20 2 37 10 42 7 5 97 9 199 9 150
0 189 -3 198 -14z"/>
</g>
</svg>
